<svg width="75px" height="96px" viewBox="0 0 75 96" version="1.1" xmlns="http://www.w3.org/2000/svg" xmlns:xlink="http://www.w3.org/1999/xlink">
    <g id="Page-1" stroke="none" stroke-width="1" fill="none" fill-rule="evenodd">
        <g id="juice-logo-full_black.722282aa" fill="#1A1A1A" fill-rule="nonzero">
            <g id="Group" transform="translate(0.003906, 0.000000)">
                <path d="M74.2959938,11.81 C74.2158938,11.14 73.8958938,10.56 73.3659938,10.09 C72.8759938,9.65 72.2458938,9.37 71.7458938,9.14 L71.3058938,8.93 C70.2758938,8.44 69.2458938,7.96 68.1858938,7.48 L67.5758938,7.21 C66.4358938,6.71 65.2858938,6.21 64.1358938,5.72 C64.1358938,5.72 60.2759938,4.07 59.4658938,3.72 C58.3358938,3.23 57.1958938,2.77 56.0558938,2.32 L54.2558938,1.59 C52.3458938,0.81 50.3758938,0 48.2858938,0 C46.8958938,0 45.6658938,0.36 44.5158938,1.09 C43.1858938,1.92 42.3458938,3.17 42.0258938,4.8 C41.6058938,6.8 40.5258938,11.16 39.5458938,15.06 C39.3258938,15.92 38.4758938,16.46 37.6058938,16.3 C35.8858938,15.98 34.1558938,15.68 32.4258938,15.39 C30.0558938,15 27.7058938,14.35 25.2858938,14.17 C22.8758938,14.01 20.5158938,14.68 18.1858938,15.25 C13.0958938,16.47 8.10594378,18.19 3.36594378,20.45 C2.12594378,21.06 1.82594378,21.67 1.80594378,22.99 C1.70594378,27.84 0.955939776,32.77 0.665939776,37.62 C0.345939776,42.9 0.155939776,48.18 0.0559399756,53.49 C-0.124060224,64.25 0.0559400756,75.15 1.71594378,85.82 C1.77594378,86.18 1.91594378,86.59 1.89594378,86.96 C1.89594378,87.24 1.95594378,87.53 2.11594378,87.79 C2.37594378,88.26 3.14594378,89.68 17.3258938,92.91 C21.4858938,93.86 31.6158938,96 38.1258938,96 C38.3858938,96 38.6558938,96 38.9158938,95.98 C54.1858938,95.53 59.3758938,89.32 59.5958938,89.06 C59.9958938,88.55 60.2458938,88.25 60.6458938,77.81 C60.8859938,71.92 61.0958938,63.99 61.2358938,56.03 C61.3958938,47.63 61.4758938,39.91 61.4358938,34.25 C61.4158938,31.88 61.4158938,29.54 61.3158938,27.19 C61.2758938,26.17 61.2158938,25.14 61.0758938,24.13 C60.8558938,22.57 59.5158938,22.04 58.2158938,21.49 C57.6858938,21.27 57.1058938,21.06 56.5558938,20.86 C55.2759938,20.39 53.9559938,19.99 52.6258938,19.62 C52.3659938,19.54 49.6658938,18.79 49.5658938,18.79 L48.8358938,18.63 C48.2058938,18.49 47.2358938,17.7 47.5058938,16.34 L49.2958938,8.71 C49.5358938,8.56 49.8858938,8.32 50.1858938,8.02 L52.4758938,9.01 C52.9358938,9.2 68.1559938,15.72 68.3258938,15.79 C68.5958938,15.9 68.8558938,16.01 69.1358938,16.15 L69.3358938,16.24 C69.4658938,16.3 69.5958938,16.36 69.7658938,16.41 C70.0158938,16.5 70.3558938,16.63 70.7658938,16.66 C71.0558938,16.66 71.2958938,16.6 71.5258938,16.54 C71.9958938,16.39 72.4358938,16.11 72.8558938,15.69 C73.2558938,15.29 73.5758938,14.84 73.8258938,14.31 C74.2558938,13.41 74.4058938,12.56 74.3058938,11.79 L74.2959938,11.81 Z M11.0858938,83.62 C10.9658938,83.84 10.6758938,83.93 10.4458938,83.82 C10.2158938,83.71 10.1058938,83.43 10.1858938,83.18 L18.7258938,56.78 L5.01594378,55.46 C4.82594378,55.44 4.66594378,55.31 4.59594378,55.13 C4.54594378,54.95 4.57594378,54.74 4.70594378,54.6 L21.5258938,35.2 C21.6858938,35.02 21.9658938,34.98 22.1658938,35.13 C22.3758938,35.26 22.4458938,35.53 22.3658938,35.77 L17.2358938,47.81 C17.1558938,48 17.2958938,48.21 17.4958938,48.21 L31.2558938,48.21 C31.4358938,48.21 31.5958938,48.3 31.6758938,48.47 C31.7658938,48.64 31.7658938,48.84 31.6758938,48.98 L11.1058938,83.63 L11.0858938,83.62 Z M37.3758938,90.01 C37.3558938,90.48 36.9358938,90.84 36.3858938,90.84 C32.8158938,90.95 27.2658938,90.73 22.1558938,89.54 C21.8058938,89.46 21.8658938,88.95 22.2258938,88.93 C37.8958938,88.03 33.3358938,55.46 36.6458938,37.08 C39.8659938,19.09 37.6558938,82.14 37.3658938,90.01 L37.3758938,90.01 Z M50.3758938,24.65 C51.7958938,24.36 53.2458938,24.2 54.6958938,24.12 C56.8358938,24 56.9558938,23.94 56.5658938,24.32 C56.2758938,24.61 55.6458938,24.75 55.2758938,24.9 C54.7058938,25.12 54.1159938,25.33 53.5358938,25.53 C50.9358938,26.43 48.3058938,27.24 45.6658938,28.03 C43.7258938,28.61 41.7958938,29.21 39.8358938,29.68 C39.5458938,29.75 39.2458938,29.81 38.9458938,29.85 C37.5259938,30.04 36.1258938,29.84 34.7358938,29.57 C32.7759938,29.19 30.8358938,28.77 28.8958938,28.3 C23.5458938,27 18.2258938,25.58 12.9158938,24.11 C7.53594378,22.57 6.63594378,21.65 13.3258938,22.61 C13.5658938,22.64 13.7658938,22.66 13.9858938,22.68 C17.5858938,23.23 21.2158938,23.71 24.7958938,24.27 C30.1258938,25.11 35.5958938,26.26 41.0058938,25.97 C44.1558938,25.8 47.2858938,25.27 50.3758938,24.65 L50.3758938,24.65 Z" id="Shape"></path>
            </g>
        </g>
    </g>
</svg>
